<?xml version="1.0" encoding="utf-8"?>
<!-- Generator: Adobe Illustrator 16.0.0, SVG Export Plug-In . SVG Version: 6.00 Build 0)  -->
<!DOCTYPE svg PUBLIC "-//W3C//DTD SVG 1.1//EN" "http://www.w3.org/Graphics/SVG/1.1/DTD/svg11.dtd">
<svg version="1.1" id="Layer_1" xmlns="http://www.w3.org/2000/svg" xmlns:xlink="http://www.w3.org/1999/xlink" x="0px" y="0px"
	 width="400px" height="292.334px" viewBox="0 0 400 292.334" enable-background="new 0 0 400 292.334" xml:space="preserve">
<g>
	<path d="M96.021,159.547h-0.279l-0.801-0.76v-0.24l0.32-0.319v-0.24c-1.04,0-1.827-2.68-2.36-8.04l0.24-0.28h0.24
		c-0.16-1.893-0.414-3.013-0.76-3.359c0.186-0.88,0.546-1.32,1.08-1.32l-1.32-1.56c0-0.32,0.08-0.92,0.24-1.801
		c-0.16-1.04-0.24-1.746-0.24-2.119h0.52l-1.56-1.801l-0.28,0.24h-0.24l-0.8-0.76c0.693-0.854,1.213-1.28,1.561-1.28
		c-0.667-2.426-1-3.72-1-3.88l2.319-1.88h0.48v1.08h-0.48l0.24,1.04l1.32-0.24v0.48l-0.28,0.279l0.28,0.8
		c2.8-2.373,5.146-3.6,7.04-3.68l0.24,0.24l0.239-0.24v0.24l-1.04,1.56h0.801v1.08l-1.561,0.24v-0.52h-0.56l-0.761,0.52
		c-0.134-0.133-0.293-0.213-0.479-0.24c-2.08,1.814-3.12,2.934-3.12,3.36c0,0.88,0.16,1.32,0.48,1.32l-0.48,1.04h0.48v0.52h-0.48
		c1.04,1.414,1.56,2.72,1.56,3.92l-1.079,0.24v0.24l0.76,0.76l0.319-0.24v0.24l6.48-1.8v0.239l0.24-0.239h1.319
		c-1.014,1.573-2.134,2.359-3.359,2.359l-4.681,1.32v-0.32l-0.8,0.32c0.4,1.04,0.826,1.56,1.28,1.56v0.761
		c-0.454,0-0.72,0.427-0.8,1.279c0.319,0,0.68,0.88,1.08,2.641l-0.521,1c0.587,0,1.106,1.479,1.561,4.439l-1.04,0.24l-0.28-0.24
		h-0.48v0.24h0.48c0,0.373-0.427,0.56-1.28,0.56V159.547z"/>
	<path d="M109.302,139.027l-0.84-0.6h-1.12l-0.32,0.279h-0.24l-0.279-0.279v-0.24l-1.08,0.52c0-0.56-0.387-0.84-1.16-0.84
		c0-0.746-0.28-1.12-0.84-1.12v-1.399c0.479-0.906,1.319-1.36,2.52-1.36c0.88,0,2,1.014,3.36,3.04v0.56c0.56,0,0.84,0.2,0.84,0.601
		L109.302,139.027z M108.182,156.827l-0.32-0.28v-0.239l0.32-0.32h0.28l-0.28-0.28v-0.84l0.28-0.24l-0.84-1.399l0.56-3.36
		l-0.56-0.52c0-0.214,0.279-1.16,0.84-2.84l-0.28-0.28v-0.24l0.28-0.32l-0.28-1.08c0-1.306,0.56-2.346,1.68-3.119h0.84
		c-0.213,2.8-0.319,4.479-0.319,5.04l-0.24,0.319l0.56,4.44h-0.319l0.319,0.279c-0.213,2.214-0.319,3.601-0.319,4.16l-0.521,0.601
		l-0.319-0.32C109.542,156.308,109.088,156.587,108.182,156.827z"/>
	<path d="M130.701,155.987h-0.72c0-0.96-0.4-1.44-1.2-1.44v-0.239c0.16-0.134,0.24-0.293,0.24-0.48l-0.721-0.72l0.721-1.44
		l-0.24-1.199l0.479-0.48l-0.239-0.72l0.239-0.24c0-4.32-1.439-7.12-4.319-8.4l-0.96-0.479c-0.641,0.106-1.28,0.507-1.92,1.2
		c0.159,0.134,0.239,0.293,0.239,0.479c0,0.24-0.8,0.8-2.399,1.681c0.16,0.133,0.24,0.293,0.24,0.479
		c-2.24,2.88-3.36,5.92-3.36,9.12l-1.44,0.479h-0.96c-0.347-0.159-0.906-1.439-1.68-3.84l0.72-1.2l-0.479-0.96h0.24
		c-0.188-1.279-0.428-1.92-0.721-1.92l0.721-1.199l-0.24-0.24v-0.72l0.24-0.24l-0.48-2.4c0.8-0.72,1.2-1.359,1.2-1.92h0.96
		l0.479,0.48c-0.106,1.119-0.267,1.68-0.479,1.68l0.24,0.24v2.64l-0.24,0.96l0.24,1.2h0.479c0-1.974,1.36-4.054,4.08-6.24
		c0.48,0,0.72-0.24,0.72-0.72l4.08-0.96v0.24l0.24-0.24c1.546,0,3.387,1.6,5.52,4.8c0.48,1.76,0.721,2.72,0.721,2.88h-0.48
		l0.721,0.96v1.68l0.479,1.44l-0.72,4.08l0.24,1.2C130.861,155.268,130.701,155.508,130.701,155.987z"/>
	<path d="M141.381,158.508c-2.56-0.214-3.84-0.454-3.84-0.721c-0.134,0.16-0.294,0.24-0.479,0.24l-2.641-1.68l0.24-0.24v-0.72
		c-0.64-0.613-1.04-1.894-1.2-3.841h0.24l-0.24-0.239c0-1.04,0.4-2.16,1.2-3.36l0.24,0.24h0.479l-0.239-0.24
		c0.239-0.96,0.72-1.439,1.439-1.439l-0.479-0.721c0.293,0,0.772-0.56,1.439-1.68c0.934-1.36,1.894-2.4,2.88-3.12
		c0.16,0,0.721,0.16,1.681,0.48c0.159-0.134,0.239-0.294,0.239-0.48c-1.76-6.613-2.64-10.773-2.64-12.479l0.72-0.48
		c0.854,0,1.333,0.56,1.44,1.68l-0.24,0.24c0.48,0.08,0.72,0.72,0.72,1.92c0.48,0,0.721,0.16,0.721,0.48
		c0,0.187-0.08,0.347-0.24,0.479l0.24,0.24c0,0.187-0.08,0.347-0.24,0.479c0.64,1.04,0.96,2,0.96,2.881l-0.24,0.239
		c0.453,0,0.854,1.2,1.2,3.601c0.4,0,0.64,0.64,0.72,1.92l-0.24,0.24c0,0.159,0.08,0.479,0.24,0.96h-0.24l0.24,0.239v0.48h-0.479
		v0.24l0.96,0.239l-0.48,1.2c0.134-0.16,0.293-0.24,0.48-0.24c0.16,0.134,0.24,0.294,0.24,0.48l-0.48,0.72v0.24l0.72,0.96v0.72
		l-0.239,0.24l0.239,0.24c0,0.32-0.08,0.8-0.239,1.439l0.479,1.44c-1.707,4-3.387,6-5.04,6
		C141.461,158.16,141.381,158.32,141.381,158.508z M141.381,156.348c0-0.48,0.32-0.88,0.96-1.2c-0.159-0.133-0.239-0.293-0.239-0.48
		l1.439-1.92l-0.24-0.239c0-0.187,0.08-0.347,0.24-0.48c0-0.16-0.08-0.56-0.24-1.2c0.134-0.16,0.294-0.24,0.48-0.24l-0.24-0.239
		c0-0.96,0.08-1.92,0.24-2.88l-0.48-0.48c0-0.187,0.08-0.347,0.24-0.479l-0.72-2.641h-0.48v0.48h-0.72l-0.72-0.48h-0.96l0.24,0.24
		v0.479h-0.48l0.24,0.24c-1.28,2.907-2.4,4.427-3.36,4.561v0.239l0.48,0.48l-1.2,2.16v0.72c0,2.08,0.72,3.12,2.16,3.12
		L141.381,156.348z"/>
	<path d="M181.061,157.787l-0.68-1.16l-0.28,0.36h-0.68c-1.92-1.28-2.88-3.813-2.88-7.6c-1.12-2.373-1.854-5.573-2.2-9.601h-0.68
		c0,1.04-0.214,1.561-0.641,1.561l0.28,0.359v0.4c-0.64,0.8-0.96,1.947-0.96,3.439l-1.561,2.681h0.32l-0.68,2.28l0.68,0.8v1.479
		c0,0.774-0.439,1.16-1.32,1.16c-0.64,0-0.96-0.506-0.96-1.52c-1.92-0.747-2.88-2.146-2.88-4.2l0.36-0.4v-0.359
		c-1.521-3.921-2.28-6.48-2.28-7.681h-0.319l-0.961,8.04l0.601,7.681l-0.96,0.76c-1.28-0.907-1.92-2.066-1.92-3.48l0.319-0.359
		l-0.319-0.4v-1.92l0.319-0.36l-0.319-0.359v-0.44l0.319-0.36l-0.319-1.119l0.68-1.16l-0.36-0.4v-2.28
		c0.106-0.133,0.227-0.253,0.36-0.359l-0.36-1.16c0-1.28,0.214-1.92,0.641-1.92l-0.28-0.4v-0.359l0.28-0.36l-0.28-0.44l1.6-8.399
		c1.681,0,2.521,0.76,2.521,2.28l2,5.359l-0.36,0.4c0,0.24,0.12,1,0.36,2.279l-0.36,0.36c1.066,1.2,1.601,2.36,1.601,3.48h0.68
		c0-1.946,0.96-5.521,2.88-10.721v-1.52c1.066-0.267,1.706-0.4,1.92-0.4c0.8,0.587,1.76,3.4,2.88,8.44l-0.319,1.16
		c1.893,4,3.613,8.974,5.16,14.92h-0.36l0.36,0.359v0.36L181.061,157.787z"/>
	<path d="M185.021,165.667c-1.04-1.227-1.56-2.199-1.56-2.92c0.613,0,0.92-0.307,0.92-0.92h0.48c0-0.747,0.359-1.12,1.08-1.12
		c0-0.373-0.308-0.6-0.921-0.68l0.24-0.24v-0.399c-0.16-0.134-0.24-0.294-0.24-0.48l1.4-0.92v-0.24c-0.454,0-0.68-0.359-0.68-1.08
		c1.12-1.04,1.946-2.253,2.479-3.64c0.4-0.453,0.84-0.68,1.32-0.68v-0.24l-0.68-0.16c0-0.4,0.466-0.866,1.399-1.4l0.24-0.88
		c-0.56,0-1.027-0.52-1.4-1.56c-1.04-0.72-1.56-1.626-1.56-2.72l-0.24,0.199h-0.479c-2.24-2.772-3.36-4.413-3.36-4.92l1.56-0.479
		l7.04,7.68c1.12-2.399,2.16-3.6,3.12-3.6l0.48-0.92l-0.24-0.88c0.666-0.854,1.347-1.693,2.04-2.521c0.32,0,0.48-0.36,0.48-1.08
		c0.985-0.96,1.8-2.106,2.439-3.439c-0.32-1.2-0.479-1.934-0.479-2.2l0.72-0.24c1.04,1.28,1.56,2.254,1.56,2.92v0.68
		c-0.906,2.721-1.427,4.16-1.56,4.32c-0.4,1.04-0.854,1.561-1.36,1.561c-0.453,1.467-0.894,2.199-1.319,2.199l0.159,0.721
		c0,0.319-0.439,0.76-1.319,1.319c0,0.641-0.534,1.107-1.601,1.4l0.48,0.4c0,0.854-0.467,1.693-1.4,2.52l0.24,0.2l-1.12,0.24v0.479
		h0.48c-1.094,1.227-1.854,2.72-2.28,4.48c-0.32,0.293-0.84,0.439-1.561,0.439c0,0.48-0.159,0.72-0.479,0.72l0.24,1.801
		C187.567,163.573,185.98,165.667,185.021,165.667z"/>
	<path d="M219.42,159.667c-0.24-0.96-0.681-1.746-1.32-2.359l0.24-1.12l-0.681-2.12h0.24l-1.479-6l0.159-0.24h0.24l-0.24-0.24
		c0-0.186,0.08-0.346,0.24-0.479l-0.84-1.36l0.6-1.88l-0.399-0.479l0.24-0.24v-0.16l-0.44-0.479c0-1.094,0.28-1.641,0.84-1.641
		l0.44-0.479h-0.44v-0.24l0.84-0.88l-0.16-0.24v-0.72c0.347,0,0.547-0.387,0.601-1.16h0.399c0-0.16-0.054-0.48-0.159-0.96
		l1.479-3.641c1.094-1.413,2.293-2.359,3.601-2.84l0.239,0.24c0.134,0,0.84-0.16,2.12-0.479h0.48c3.84,1.253,5.76,2.813,5.76,4.68
		c1.84,2.32,2.76,4.56,2.76,6.72c0,3.36-1.787,5.84-5.359,7.44l-0.24-0.721h-0.4v0.48c-0.134,0-0.64-0.08-1.52-0.24l-0.16,0.24
		c-0.16,0-0.667-0.08-1.521-0.24l-5.56,0.48l-1.04-0.721c0,0.32,0.066,0.787,0.2,1.4l-0.2,0.72c0.293,0,0.773,2.694,1.44,8.08
		c0.319,0,0.479,0.387,0.479,1.16h-0.479l-0.601-2.76h-0.24c0,0.32,0.146,1.173,0.44,2.56
		C219.806,159.36,219.605,159.667,219.42,159.667z M219.42,147.348c0-0.507,0.199-0.96,0.6-1.36l-0.2-0.24l0.2-0.239h0.24l0.16,0.72
		h0.479v-0.72l0.2,0.239c0.16,0,0.933-0.239,2.32-0.72l4.079,0.72l0.841-0.239l0.239,0.239c1.493-1.253,2.413-1.88,2.761-1.88
		l-0.24-0.24v-0.479c0.32,0,0.76-0.453,1.32-1.36l-0.24-0.68l0.439-0.48v-1.6c-0.693-0.854-1.04-1.64-1.04-2.36
		c-2.507-3.226-4.64-4.84-6.399-4.84c-1.494,0-2.92,1-4.28,3l0.2,0.24c0,0.56-0.707,2.094-2.12,4.6l0.2,0.24v0.96
		c0,1.094-0.147,1.641-0.44,1.641c0.16,0.133,0.24,0.293,0.24,0.479l-0.24,0.16l0.24,0.24l-0.24,1.439l0.24,2.521H219.42z"/>
	<path d="M240.979,158.308l-0.92-0.84l0.2-1.921c-1.12-0.159-1.68-0.906-1.68-2.239l-0.2-0.28c0-0.16,0.36-4.227,1.08-12.2l0.8-3.88
		v-1.92l0.521-0.84l-0.16-1.4c0.186,0,0.426-1.2,0.72-3.6h0.16l-0.16-0.28c0-1.493,0.373-2.24,1.12-2.24l0.92,1.681l-0.36,0.56
		c0.106,0.16,0.16,0.334,0.16,0.521c-0.267,3.52-0.56,5.279-0.88,5.279l0.16,0.32v1.08l-0.16,0.28l0.16,0.239
		c0,0.214-0.254,1.334-0.76,3.36l0.16,1.08l-0.36,5.28l0.2,2c-0.24,0-0.48,0.64-0.721,1.92l0.16-0.32h0.2
		c-0.026,0.214-0.094,0.414-0.2,0.6l0.36,1.641l-0.72,1.12l0.92,0.56C241.619,156.827,241.379,158.308,240.979,158.308z"/>
	<path d="M249.979,155.468h-0.24c-2.88-1.04-4.319-2.561-4.319-4.561l0.24-0.24c0-0.159-0.16-0.72-0.48-1.68l0.48-0.96l-0.24-0.24
		v-0.479h0.479l-0.479-0.721l0.72-0.239l-0.479-0.721l0.72-0.72l-0.24-0.24v-0.72c0.48,0,0.88-0.4,1.2-1.2
		c1.653-1.279,2.693-1.92,3.12-1.92l0.96,0.24l0.72-0.24v0.24l0.24-0.24h1.2c0.853,0,1.813,1.92,2.88,5.76l0.96,0.24l0.24-0.24
		l0.479,1.44c0.56,0,2.48,1.2,5.76,3.6c1.601,0.641,2.4,1.28,2.4,1.92c-0.987,0.801-1.947,1.2-2.88,1.2l-0.24-0.72l-0.72,0.48
		c-0.16-0.693-0.96-1.254-2.4-1.681c0-0.373-1.2-1.493-3.6-3.359c-0.16,1.76-1.04,3.199-2.641,4.319c-0.587,0.8-1.547,1.2-2.88,1.2
		l-0.24-0.24L249.979,155.468z M251.179,153.547c0.133-0.159,0.293-0.239,0.48-0.239c-0.16-0.134-0.24-0.293-0.24-0.48
		c0.8-1.12,1.279-2.479,1.439-4.08l0.721-0.72l-0.48-2.16h0.24l-0.48-0.96l0.48-0.479c-0.48,0-0.72-0.48-0.72-1.44h-1.2
		c-2.24,0.667-3.36,1.547-3.36,2.64l-0.96,2.641c0.613,2.479,1.253,3.92,1.92,4.319l1.44,0.96H251.179z M265.339,155.228h-0.48
		v-0.72l0.48,0.479V155.228z"/>
	<path d="M286.339,155.987h-0.721c0-0.96-0.399-1.44-1.199-1.44v-0.239c0.16-0.134,0.239-0.293,0.239-0.48l-0.72-0.72l0.72-1.44
		l-0.239-1.199l0.479-0.48l-0.24-0.72l0.24-0.24c0-4.32-1.439-7.12-4.319-8.4l-0.961-0.479c-0.64,0.106-1.279,0.507-1.92,1.2
		c0.16,0.134,0.24,0.293,0.24,0.479c0,0.24-0.8,0.8-2.399,1.681c0.159,0.133,0.239,0.293,0.239,0.479
		c-2.239,2.88-3.359,5.92-3.359,9.12l-1.44,0.479h-0.96c-0.347-0.159-0.907-1.439-1.68-3.84l0.72-1.2l-0.479-0.96h0.239
		c-0.187-1.279-0.427-1.92-0.72-1.92l0.72-1.199l-0.239-0.24v-0.72l0.239-0.24l-0.479-2.4c0.8-0.72,1.2-1.359,1.2-1.92h0.96
		l0.479,0.48c-0.106,1.119-0.267,1.68-0.479,1.68l0.239,0.24v2.64l-0.239,0.96l0.239,1.2h0.48c0-1.974,1.36-4.054,4.08-6.24
		c0.479,0,0.72-0.24,0.72-0.72l4.08-0.96v0.24l0.24-0.24c1.546,0,3.386,1.6,5.52,4.8c0.48,1.76,0.721,2.72,0.721,2.88h-0.48
		l0.72,0.96v1.68l0.48,1.44l-0.72,4.08l0.239,1.2C286.499,155.268,286.339,155.508,286.339,155.987z"/>
	<path d="M304.099,155.627l-0.36-0.439l-0.399,0.439l-0.561-0.439l-0.239,0.2h-0.521l-1.2-0.44l0.16-0.16v-0.24h-0.16l-0.6,0.24
		c-1.36-1.653-2.84-5.04-4.44-10.16l-0.239-0.239h-0.2l-3.88,1.56v-0.24l-1.92,0.84l-0.44-0.6v-0.24c0-1.359,2.08-2.652,6.24-3.88
		l-0.36-2.76c0-4.16,0.267-6.24,0.8-6.24h0.16l0.36,0.4v2.76l-0.16,0.24l0.16,0.68l-0.16,0.84l0.16,0.641l-0.16,0.84
		c0.267,0,0.466,0.439,0.6,1.319l-0.439,0.44c0.399,0,0.6,0.28,0.6,0.84l5.12-1.08l0.16,0.24c0-0.293,1.506-0.653,4.52-1.08
		l1.92,0.24v0.399c0,0.294-0.267,0.44-0.8,0.44l-0.16,0.64l0.16,0.2c-0.187,0.267-1.026,0.48-2.52,0.641l-0.16,0.239v-0.239
		l-2.96,0.68l-0.16-0.24c-1.12,0.187-1.907,0.547-2.36,1.08c-0.159,0-0.493-0.066-1-0.2c-0.64,0.16-0.96,0.36-0.96,0.601
		c0.187,0.88,0.387,1.746,0.601,2.6h0.16l-0.16,0.24v0.64l0.16-0.24h0.199l1.2,2.16v0.24h-0.439v0.2c0.399,0,0.6,0.294,0.6,0.88
		l-0.16,0.2c0.267,0,0.786,0.439,1.561,1.319c1.199,0.721,2.439,1.08,3.72,1.08c1.12-0.533,1.96-1.56,2.52-3.08l2.16-0.159
		l0.16,0.159c0,0.188-0.054,0.348-0.16,0.48h-0.239l0.239,0.2v0.239c-2.054,2.428-3.813,3.641-5.279,3.641L304.099,155.627z"/>
</g>
<path fill="#C88D82" d="M71.583,119.271c6.496,0.898,16.718,0.783,22.744-1.835c5.667-2.461,9.2-11.444,5.498-16.876
	c-9.67-14.192-31.219-9.32-45.522-6.361c-4.749,0.982-11.948,5.511-8.832,11.647c2.095,4.124,8.375,6.564,12.475,7.885
	C62.498,115.197,66.939,118.629,71.583,119.271z"/>
<g>
	<path fill="none" stroke="#000000" stroke-width="0.4" stroke-miterlimit="10" d="M143.496,212.035c0,0-2.851,5.05-3.261,7.607
		c-0.411,2.559-0.326,4.372-1.277,6.296c-0.951,1.925-4.054,5.128-6.014,4.609c-1.961-0.519-3.771-1.95-3.711-3.345
		c0.057-1.394,2.091-2.769,3.886-3.718c1.793-0.949,2.043-2.705,3.804-2.653c1.76,0.054,2.327,2.457,2.327,2.457"/>
	<path fill="none" stroke="#000000" stroke-width="0.4" stroke-miterlimit="10" d="M135.905,229.802c0,0-2.021,4.475-1.686,7.412
		c0.334,2.939,2.408,9.313,4.327,12.166c-0.375,1.555,0.058,5.808,1.176,8.235c1.117,2.427,3.186,2.929,4.938,2.152
		c1.752-0.777,4.622-4.889,4.497-6.529c-0.126-1.644-2.312-2.959-4.188-3.823c-1.877-0.866-4.846-0.95-5.797-0.466"/>
	<path fill="none" stroke="#000000" stroke-width="0.4" stroke-miterlimit="10" d="M134.511,232.404c0,0-1.869-2.198-3.086-0.896
		c-1.218,1.302-5.098,5.849-4.48,7.469c0.618,1.619,1.711,2.997,3.245,2.255c1.534-0.741,3.57-2.117,3.57-2.117"/>
	<path fill="none" stroke="#000000" stroke-width="0.4" stroke-miterlimit="10" d="M135.152,242.273c0,0-0.95,6.966-0.467,8.993
		c0.483,2.028,2.387,6.824,0.625,8.931c-1.761,2.107-3.379,3.195-4.497,1.489c-1.116-1.707-2.644-4.457-2.043-5.217
		c0.602-0.76,2.479-1.333,2.913-2.123c0.433-0.789,1.983-2.031,3.034-1.201"/>
</g>
<g>
	<path fill="none" stroke="#000000" stroke-width="0.4" stroke-miterlimit="10" d="M84.352,175.172c0,0-2.646-5.16-4.555-6.911
		c-1.909-1.752-3.47-2.68-4.552-4.533c-1.084-1.854-2.049-6.208-0.536-7.559s3.704-2.072,4.836-1.256
		c1.132,0.815,1.159,3.271,0.963,5.292c-0.194,2.02,1.133,3.194,0.12,4.636c-1.014,1.439-3.332,0.589-3.332,0.589"/>
	<path fill="none" stroke="#000000" stroke-width="0.4" stroke-miterlimit="10" d="M73.703,159.052c0,0-2.623-4.15-5.26-5.488
		c-2.637-1.34-9.099-3.118-12.538-3.088c-1.091-1.169-4.879-3.15-7.521-3.554c-2.642-0.404-4.198,1.046-4.516,2.938
		c-0.316,1.89,1.535,6.55,2.974,7.349c1.441,0.801,3.742-0.3,5.498-1.391c1.756-1.09,3.461-3.521,3.58-4.582"/>
	<path fill="none" stroke="#000000" stroke-width="0.4" stroke-miterlimit="10" d="M72.296,156.456c0,0,2.864-0.351,2.447-2.084
		c-0.416-1.732-2.075-7.476-3.767-7.852s-3.444-0.223-3.67,1.467c-0.226,1.688-0.199,4.146-0.199,4.146"/>
	<path fill="none" stroke="#000000" stroke-width="0.4" stroke-miterlimit="10" d="M63.706,151.556c0,0-5.29-4.629-7.249-5.342
		c-1.959-0.714-7.011-1.767-7.799-4.396c-0.79-2.63-0.807-4.58,1.233-4.574c2.04,0.009,5.176,0.248,5.479,1.168
		s-0.252,2.803,0.168,3.601c0.42,0.795,0.604,2.774-0.668,3.194"/>
</g>
<path fill="none" stroke="#000000" stroke-width="0.4" stroke-linecap="round" stroke-linejoin="round" stroke-miterlimit="10" d="
	M232.188,166.759c0.047,1.595-0.565,3.313-0.351,5.028c0.197,1.577,0.706,3.118,1.193,4.632c0.435,1.349,1.708,2.394,2.717,3.358
	c1.269,1.208,2.623,2.322,3.899,3.521c2.413,2.273,5.283,3.213,8.198,4.597c1.026,0.485,2.216,1.21,3.358,1.36
	c0.939,0.121,1.534-0.579,2.379-0.767c1.337-0.296,2.918-0.872,3.819-1.992c1.051-1.306,1.018-2.688-0.528-3.476
	c-1.305-0.666-2.951-0.316-4.404-0.398c-1.412-0.078-2.746-0.334-4.146-0.24c-1.236,0.084-2.48,0.503-3.695,0.671
	c-1.386,0.191-2.524-0.279-3.787-0.873c-1.365-0.642-2.728-1.347-4.076-2.057"/>
<g>
	<path fill="#5CB59A" d="M98.346,83.18c3.457,0.951,6.835,1.639,10.39,0.868c1.965-0.425,3.953-0.971,5.905-1.395
		c1.876-0.409,4.094-0.833,5.707-1.83c1.524-0.945,2.722-2.324,4.216-3.402c1.279-0.929,2.741-1.917,3.876-3.078
		c2.392-2.438,3.507-6.799,3.764-10.176c0.296-3.858-0.5-8.214-1.913-11.966c-1.304-3.465-2.929-6.996-5.754-9.379
		c-1.69-1.427-3.685-1.275-5.712-2.072c-1.815-0.714-3.571-1.752-5.521-2.065c-6.32-1.015-13.022-3.142-19.407-3.014
		c-5.313,0.105-10.445-0.778-15.713-1.478c-2.292-0.304-4.57-0.251-6.881-0.556c-3.017-0.396-5.622-0.332-8.519,0.447
		c-1.949,0.523-4.169,0.879-5.798,1.958c-1.79,1.188-3.18,2.752-4.576,4.333c-1.332,1.508-2.989,3.057-3.763,5.013
		c-0.586,1.479-0.898,3.315-1.044,4.876c-0.377,4.045,2.402,8.098,5.121,10.792c3.387,3.357,8.125,4.275,12.01,6.895
		c4.442,2.995,8.993,5.873,14.055,7.682c3.45,1.235,6.92,2.236,10.004,4.274C91.589,81.753,95.148,82.304,98.346,83.18z"/>
	<path fill="none" stroke="#000000" stroke-width="0.4" stroke-linejoin="round" stroke-miterlimit="10" d="M123.185,61.143
		c1.369-0.602,1.945-2.146,2.465-3.446c0.608-1.518,1.813-2.003,2.897-3.151c2.349-2.482,1.753-5.808,0.063-8.519
		c-0.801-1.285-1.665-3.021-1.673-4.699c-0.003-0.879,0.25-1.655,0.159-2.524c-0.107-1.014-0.409-2.007-0.678-3.008
		c-0.474-1.766-1.27-2.919-2.791-3.926c-1.017-0.672-2.917-1.754-4.15-1.519c-0.025,1.448,0.651,3.253,0.97,4.699
		c0.344,1.565-0.314,2.923-0.726,4.468c-0.596,2.224-1.676,6.03-3.947,7.158c-0.286,0.141-0.538,0.277-0.866,0.32
		c-0.887-2.809,0.888-5.349,0.948-8.069c0.062-2.766,0.934-5.84-0.352-8.452c-0.654-1.328-2.525-1.74-3.934-2.099
		c-1.382-0.354-2.965-0.538-4.407-0.69c-1.306-0.137-2.814-0.56-4.125-0.4c-1.444,0.177-0.697,0.855,0.205,1.513
		c0.614,0.447,0.894,0.822,1.372,1.425c0.922,1.161,1.955,2.206,2.589,3.572c1.255,2.698,2.46,7.312,0.819,10.016
		c-0.279,0.461-1.053,1.596-1.72,1.454c-0.613-0.131-0.866-1.64-1.041-2.288c-0.971-3.64-1.561-7.434-2.347-11.127
		c-0.873-4.097-5.981-4.806-9.485-3.865c-2.181,0.587-5.157,1.179-6.865,2.613c0.043,0.779,3.845,1.043,4.741,1.408
		c0.863,0.35,1.579,0.893,2.251,1.504c1.989,1.807,2.822,4.209,3.496,6.754c0.439,1.664,1.495,2.933,1.784,4.651
		c0.351,2.08-1.674,2.091-3.058,1.06c-1.167-0.871-1.398-2.714-1.984-4.004c-1.231-2.713-2.264-4.927-4.297-7.161
		c-0.952-1.047-1.779-2.309-3.007-3.12c-1.055-0.695-2.956-0.836-4.276-0.906c-1.754-0.093-3.26-0.258-5.034-0.037
		c-1.718,0.216-3.639,0.941-4.9,2.063c-1.592,1.413,0.492,1.878,1.678,2.355c2.904,1.166,5.952,2.412,8.538,4.148
		c1.304,0.876,2.603,1.74,3.574,2.938c0.675,0.833,2.312,3.204,1.747,4.316c-0.727,1.43-2.9,0.688-3.751-0.14
		c-1.201-1.169-1.74-2.982-2.74-4.312c-2.385-3.173-5.872-4.848-9.579-6.145c-1.529-0.537-3.005-0.995-4.61-1.166
		c-2.135-0.225-3.737,0.399-5.845,0.856c-1.072,0.232-4.916,0.489-4.659,2.086c0.604,0.035,1.234,0.023,1.806,0.086
		c2.532,2.247,6.49,1.689,9.69,2.184c1.556,0.241,3.444,0.584,4.295,2.053c0.999,1.722-0.878,2.923-2.462,2.778
		c-0.8-0.074-1.8-0.669-2.515-1.004c-1.167-0.546-2.223-0.91-3.505-1.095c-1.826-0.266-3.452-0.733-5.295-0.65
		c-1.405,0.064-2.929-0.541-4.25,0.198c-1.276,0.715-2.411,2.124-3.532,3.086c-1.209,1.035-2.318,2.01-3.317,3.244
		c-0.412,0.509-0.933,1.068-1.087,1.735c-0.215,0.929,0.227,0.918,0.746,1.693c0.431,0.645,0.568,1.487,1.096,2.058
		c0.562,0.608,1.682,0.458,2.655,0.355c2.22-0.234,4.445-1.07,6.631-1.467c1.468-0.267,3.703-0.284,5.099,0.263
		c1.553,0.608,2.224,2.2,0.68,3.219c-1.819,1.201-5.288,1.529-7.274,1.498c-1.499-0.023-6.722-0.561-7.341,1.234
		c-0.401,1.164,1.178,3.292,1.909,4.097c3.552,3.919,11.361,1.891,14.911-1.014c2.654-2.171,6.305-3.749,9.482-5.243
		c1.034-0.488,4.118-1.977,5.087-0.89c1.001,1.126-0.782,2.622-1.537,3.353c-1.875,1.822-4.424,3.632-6.691,4.939
		c-2.505,1.443-5.53,1.273-8.319,1.237c-2.413-0.033-5.145-0.702-7.535,0.14c0.296,1.591,2.122,2.277,3.096,3.533
		c0.938,1.213,1.982,2.614,3.55,2.573c1.874-0.048,3.905-0.727,5.74-1.033c2.025-0.334,4.095-0.531,6.126-0.871
		c3.141-0.525,5.694-3.333,8.165-5.002c1.474-0.995,2.73-2.118,4.589-2.488c1.72-0.345,3.444,1.071,1.614,2.422
		c-0.934,0.69-2.239,1.04-3.192,1.713c-2.436,1.717-4.991,3.455-7.318,5.309c-1.39,1.104-3.531,1.643-5.35,1.949
		c-0.774,0.132-4.754-0.271-4.953,0.281c-0.359,0.997,2.971,2.749,3.62,3.201c2.423,1.687,4.44,5.266,7.67,4.985
		c3.819-0.328,6.795-2.695,9.855-4.593c1.507-0.932,2.766-2.105,3.972-3.525c0.504-0.591,1.063-1.154,1.575-1.7
		c0.627-0.668,0.733-1.342,1.144-2.107c0.714-1.334,2.426-2.29,3.859-2.739c0.778-0.249,1.849-0.818,2.278,0.027
		c0.333,0.657-0.238,1.314-0.538,1.875c-0.941,1.758-1.167,3.723-2.333,5.383c-1.146,1.631-2.665,2.988-4.187,4.253
		c-1.513,1.262-3.106,2.304-4.599,3.593c-0.563,0.483-3.543,2.112-3.348,2.592c-0.002-0.005,5.632-0.638,6.152-0.669
		c2.129-0.131,4.281-0.252,6.363-0.759c1.611-0.394,3.687-1.054,4.934-2.214c1.202-1.12,1.3-2.909,1.532-4.429
		c0.206-1.33,0.588-3.243,1.247-4.483c0.684-1.287,1.678-2.541,3.201-2.813c2.199-0.39,2.808,1.392,2.071,3.214
		c-0.596,1.469-1.723,2.519-2.906,3.531c-0.922,0.787-3.041,1.683-2.381,3.081c2.148,0.26,3.825-2.221,5.699-2.984
		c1.663-0.679,3.424-1.219,5.211-1.436c1.575-0.194,3.565,0.623,5.027,0.159c0.988-0.313,0.992-0.707,0.841-1.64
		c-0.234-1.451-0.679-3.302-1.27-4.636c-1.273-2.887-4.712-2.829-6.324-5.179c-0.847-1.232,0.3-1.382,1.417-1.655
		C119.657,62.128,121.522,61.872,123.185,61.143z"/>
	<path fill="none" stroke="#000000" stroke-width="0.4" stroke-linejoin="round" stroke-miterlimit="10" d="M121.54,81.678
		c-0.72-1.21-1.152-2.828-1.651-4.153c-0.652-1.733-1.381-3.565-2.326-5.169c-1.624-2.756-2.829-5.699-5.016-8.093
		c-2.126-2.328-4.786-4.157-7.687-5.385c-3.187-1.35-6.406-2.443-9.74-3.426c-3.426-1.01-6.646-1.832-10.004-3.531
		c-2.965-1.5-6.447-1.764-9.609-2.047c-3.167-0.282-6.147-0.507-9.345-0.448c-0.848,0.016-1.813,0.083-2.653,0.072
		c-1.349-0.013-2.417-0.213-3.762-0.091c-1.487,0.134-2.989-0.123-4.48,0.034c-2.8,0.293-5.565-0.316-8.381,0.581
		c0.586,0.688,3.795-0.042,4.772-0.146c2.075-0.221,3.554-0.373,5.61-0.07c3.45,0.511,6.871,0.044,10.417,0.194
		c3.157,0.132,6.638,0.764,9.737,1.232c1.732,0.261,3.446,1.014,5.174,1.285c1.638,0.256,3.134,0.467,4.721,0.868
		c1.646,0.417,3.063,0.618,4.624,1.294c1.811,0.781,3.534,1.735,5.335,2.444c2.763,1.088,5.599,2.209,8.248,3.631
		c4.651,2.496,7.701,6.911,10.046,11.505c6.93,13.574,19.295,24.515,24.101,39.272"/>
</g>
<g>
	<path fill="#5CB59A" d="M337.91,211.468c-1.398-3.148-2.943-6.078-5.679-8.252c-1.513-1.201-3.129-2.347-4.633-3.539
		c-1.446-1.145-3.112-2.535-4.836-3.128c-1.63-0.558-3.384-0.608-5.095-1.063c-1.468-0.386-3.093-0.869-4.647-1.008
		c-3.268-0.293-7.188,1.532-9.855,3.397c-3.046,2.129-5.801,5.372-7.729,8.706c-1.782,3.079-3.418,6.437-3.469,9.987
		c-0.032,2.125,1.296,3.516,1.938,5.507c0.573,1.784,0.87,3.722,1.826,5.36c3.093,5.316,5.594,11.594,9.572,16.261
		c3.314,3.886,5.781,8.237,8.47,12.579c1.169,1.888,2.595,3.55,3.775,5.452c1.541,2.483,3.177,4.38,5.52,6.061
		c1.575,1.13,3.19,2.563,4.983,3.116c1.974,0.607,3.982,0.689,6.007,0.765c1.932,0.072,4.093,0.36,6.018-0.256
		c1.457-0.463,3.011-1.35,4.259-2.19c3.238-2.184,4.558-6.716,4.905-10.376c0.434-4.563-1.767-8.643-2.186-13.126
		c-0.478-5.124-1.109-10.258-2.848-15.123c-1.183-3.315-2.551-6.506-2.913-10.037C340.963,217.358,339.205,214.378,337.91,211.468z"
		/>
</g>
<g>
	<path fill="none" stroke="#000000" stroke-width="0.4" stroke-linecap="round" stroke-linejoin="round" stroke-miterlimit="10" d="
		M124.25,117.301c-1.152-1.104-1.923-2.758-3.278-3.829c-1.247-0.985-2.691-1.726-4.102-2.463c-1.255-0.656-2.896-0.508-4.291-0.486
		c-1.752,0.029-3.498,0.186-5.249,0.227c-3.314,0.073-6.019,1.418-9.066,2.478c-1.072,0.374-2.428,0.691-3.348,1.387
		c-0.754,0.572-0.688,1.489-1.157,2.216c-0.745,1.148-1.468,2.668-1.324,4.099c0.167,1.668,1.161,2.63,2.815,2.106
		c1.396-0.441,2.325-1.846,3.417-2.808c1.061-0.935,2.191-1.688,3.124-2.737c0.822-0.928,1.415-2.099,2.162-3.07
		c0.852-1.109,1.995-1.572,3.311-2.036c1.423-0.501,2.888-0.953,4.348-1.395"/>
	<path fill="none" stroke="#000000" stroke-width="0.4" stroke-linecap="round" stroke-linejoin="round" stroke-miterlimit="10" d="
		M103.617,106.703c-0.624-0.096-1.238-0.576-1.791-0.895c-0.473-0.272-1.044-0.475-1.569-0.721
		c-1.034-0.484-1.999-1.059-3.136-1.347c-1.13-0.288-2.257-0.085-3.363-0.361c-1.004-0.249-1.744-1.454-2.656-1.992
		c-2.101-1.239-4.937,0.053-7.136,0.484c-2.727,0.534-5.252,1.247-8.042,1.312c-2.644,0.062-5.442,0.006-8.075,0.527
		c-2.609,0.52-4.878,0.831-7.442,0.396c-0.776-0.132-1.527-0.381-2.238-0.716c-0.622-0.295-1.266-0.899-1.945-1.03
		c-1.331-0.257-2.728,1.307-3.635,2.071c-0.923,0.78-1.773,1.657-2.683,2.469c-1.03,0.922-0.61,2.246-0.294,3.519
		c0.155,0.624,0.285,1.079,0.875,1.313c1.039,0.411,0.664-0.228,0.905-0.895c0.428-1.191,2.089-1.91,3.017-2.688
		c0.48-0.403,0.676-0.833,0.887-1.438c0.44-1.265,0.832-2.559,2.239-3.075"/>
	<path fill="none" stroke="#000000" stroke-width="0.4" stroke-linecap="round" stroke-linejoin="round" stroke-miterlimit="10" d="
		M115.899,111.448c-0.853-0.366-1.31-1.231-2.087-1.635c-0.661-0.343-1.538-0.204-2.238-0.469c-0.471-0.179-0.981-0.54-1.415-0.807
		c-1.041-0.642-2.112-1.158-3.227-1.623c-1.501-0.627-3.015-1.038-4.636-1.149c-1.154-0.08-2.331,0.101-3.484-0.043
		c-1.341-0.166-2.548-0.835-3.843-1.177c-1.188-0.313-2.314-0.739-3.563-0.49c-1.337,0.268-2.79,0.599-4.065,1.07
		c-1.166,0.432-1.877,1.004-3.157,0.755c-1.037-0.202-1.936-0.504-2.797-1.137c-0.671-0.492-1.57-0.692-2.035-1.464
		c-0.522-0.867-1.303,0.775-1.442,1.113c-0.746,1.807-0.522,2.7,0.041,4.501c0.529,1.693,1.47,2.441,3.127,2.965
		c2.958,0.935,5.586-1.022,7.381-3.305c1.501-1.909,2.146-5.076,5.261-4.765"/>
	<path fill="none" stroke="#000000" stroke-width="0.4" stroke-linecap="round" stroke-linejoin="round" stroke-miterlimit="10" d="
		M58.33,102.838c-1.016-0.088-1.469-0.847-2.25-1.311c-0.956-0.572-2.051-0.986-3.026-1.561c-1.177-0.694-2.62-0.645-3.815-1.264
		c-1.314-0.68-2.586-1.454-3.858-2.223c-1.021-0.616-1.75-1.56-2.279-2.604c-0.556-1.097-0.953-2.385-1.254-3.609
		c-0.326-1.326,0.617-2.083,1.668-2.658c1.199-0.657,3.107-0.49,4.375-0.048c1.211,0.422,1.883,1.373,2.496,2.439
		c1.298,2.256,1.828,5.443,2.069,7.974c0.062,0.646,0.153,1.604,0.662,2.13"/>
	<path fill="none" stroke="#000000" stroke-width="0.4" stroke-linecap="round" stroke-linejoin="round" stroke-miterlimit="10" d="
		M77.91,104.394c-2.522-1.605-8.175-4.205-12.681-4.599c-1.699-1.399-1.768-2.417-2.094-4.552c-0.326-2.137-1.281-7.673-3.689-8.778
		c-2.409-1.106-3.609-1.384-4.386,1.325c-0.777,2.708,0.142,8.654,3.662,9.743c3.521,1.091,4.017,0.62,5.681,2.431l0.812,0.314"/>
	<path fill="none" stroke="#000000" stroke-width="0.4" stroke-linecap="round" stroke-linejoin="round" stroke-miterlimit="10" d="
		M77.323,105.234c0,0-5.229-0.414-9.777,1.439c-4.546,1.852-7.008,6.904-7.449,9.67c-0.44,2.766-0.884,3.938,2.3,1.538
		c3.184-2.397,3.116-3.414,4.891-4.668c1.775-1.255,6.551-8.681,6.551-8.681"/>
</g>
<g>
	<path fill="#DEB892" d="M327.023,190.371c6.231-1.015,15.561-3.913,20.264-7.793c4.423-3.646,4.855-12.257-0.231-15.864
		c-13.288-9.424-31.51,0.626-43.689,7.063c-4.044,2.137-9.227,7.961-4.456,12.328c3.206,2.936,9.723,3.291,13.89,3.292
		C317.427,189.396,322.567,191.098,327.023,190.371z"/>
</g>
<g>
	<path fill="#8BCCC9" d="M211.704,46.025c4.259-1.742,11.859-7.411,14.229-9.486c2.371-2.076,6.522-3.854,9.782-2.667
		c3.261,1.185,8.448,4.743,10.968,10.82c2.521,6.077,3.559,16.154,0.741,19.713c-2.816,3.556-5.187,4.89-7.559,4.89
		s-10.228-1.63-15.564-1.185c-5.335,0.444-11.856,4.743-13.782,9.041c-1.928,4.299-3.854,15.416-5.633,18.083
		c-1.779,2.668-4.744,8.003-14.525,5.928c-9.783-2.075-19.565-10.375-19.565-24.752c0-14.376,8.3-21.194,15.415-23.566
		C193.325,50.472,208.443,47.36,211.704,46.025z"/>
</g>
<path fill="#B5C193" d="M241.301,90.023c10.011-8.944,0.277-20.966-7.178-33.09c-7.115-11.578-19.859-22.795-24.604-5.981
	c-2.119,7.508,1.162,17.149,0.123,25.146c-0.856,6.581-4.391,11.366,0.795,18.676C223.041,112.543,234.214,96.354,241.301,90.023z"
	/>
<g>
	<path fill="none" stroke="#000000" stroke-width="0.4" stroke-miterlimit="10" d="M270.353,124.172c0,0-2.646-5.16-4.555-6.911
		c-1.909-1.752-3.47-2.68-4.552-4.533c-1.084-1.854-2.049-6.208-0.536-7.559s3.704-2.072,4.836-1.256
		c1.132,0.815,1.159,3.271,0.963,5.292c-0.194,2.02,1.133,3.194,0.12,4.636c-1.014,1.439-3.332,0.589-3.332,0.589"/>
	<path fill="none" stroke="#000000" stroke-width="0.4" stroke-miterlimit="10" d="M259.703,108.052c0,0-2.623-4.15-5.26-5.488
		c-2.637-1.34-9.099-3.118-12.538-3.088c-1.091-1.169-4.879-3.15-7.521-3.554c-2.642-0.404-4.198,1.046-4.516,2.938
		c-0.316,1.89,1.535,6.55,2.974,7.349c1.441,0.801,3.742-0.3,5.498-1.391c1.756-1.09,3.461-3.521,3.58-4.582"/>
	<path fill="none" stroke="#000000" stroke-width="0.4" stroke-miterlimit="10" d="M258.297,105.456c0,0,2.864-0.351,2.447-2.084
		c-0.416-1.732-2.075-7.476-3.767-7.852s-3.444-0.223-3.67,1.467c-0.226,1.688-0.199,4.146-0.199,4.146"/>
	<path fill="none" stroke="#000000" stroke-width="0.4" stroke-miterlimit="10" d="M249.706,100.556c0,0-5.29-4.629-7.249-5.342
		c-1.959-0.714-7.011-1.767-7.799-4.396c-0.79-2.63-0.807-4.58,1.233-4.574c2.04,0.009,5.176,0.248,5.479,1.168
		s-0.252,2.803,0.168,3.601c0.42,0.795,0.604,2.774-0.668,3.194"/>
</g>
<path fill="#639A74" d="M241.593,69.044c-2.188-3.949-4.957-8.023-7.47-12.11c-4.32-7.029-10.713-13.914-16.133-14.484
	c-2.264,1.504-4.552,2.867-6.286,3.576c-0.048,0.02-0.107,0.041-0.16,0.062c-0.772,1.256-1.457,2.855-2.024,4.865
	c-2.119,7.508,1.162,17.149,0.123,25.146c-0.501,3.849-1.906,7.084-1.959,10.568c0.933-3.609,1.884-7.394,2.836-9.516
	c1.926-4.298,8.447-8.597,13.782-9.041c5.337-0.445,13.192,1.185,15.564,1.185C240.439,69.295,241.013,69.213,241.593,69.044z"/>
<path fill="none" stroke="#000000" stroke-width="0.4" stroke-linecap="round" stroke-linejoin="round" stroke-miterlimit="10" d="
	M248.948,49.427c-0.949,0.366-1.908,0.415-2.849,0.673c-0.738,0.203-1.518,0.544-2.268,0.702c-1.208,0.253-2.285,0.368-3.415,0.745
	c-0.911,0.304-2.009,0.562-2.884,0.966c-0.387,0.178-0.758,0.404-1.148,0.568c-0.86,0.36-1.795,0.765-2.71,1.094
	c-1.678,0.604-3.429,0.956-5.161,1.37c-0.716,0.171-1.456,0.307-2.117,0.633c-0.579,0.288-1.077,0.701-1.71,0.901
	c-0.744,0.233-1.295,0.255-1.915,0.767c-0.776,0.641-1.411,1.438-2.096,2.171c-1.538,1.646-3.263,3.405-5.146,4.657
	c-0.891,0.594-1.812,1.079-2.669,1.788c-1.165,0.966-1.39,1.656-1.463,3.128c-0.054,1.081,0.454,2.354,1.149,3.159
	c1.832,2.125,4.313,4.112,6.744,5.517c1.329,0.767,2.076,2.149,2.982,3.328c0.451,0.588,0.933,1.092,1.53,1.529
	c0.483,0.354,1.111,1.021,1.693,1.151c0.561,0.125,1.376,0.003,1.903-0.128c0.825-0.207,2.519-0.417,2.626-1.406
	c0.11-1.005-1.347-1.998-1.881-2.778c-0.604-0.885-1.286-1.688-1.932-2.555c-1.295-1.74-2.752-3.868-3.074-6.048
	c-0.08-0.544-0.492-3.33,0.239-3.438c0.526-0.076,1.943,1.883,2.249,2.321c0.661,0.954,1.307,1.836,1.858,2.853
	c0.854,1.569,1.474,3.118,1.725,4.885c0.253,1.78,1.102,3.485,2.731,4.391c2.198,1.219,5.517,0.734,8.021,0.734
	c0.577,0,1.429,0.166,1.972,0.001c0.537-0.163,0.851-0.722,1.263-1.082c0.798-0.701,1.596-1.559,2.464-2.213
	c0.948-0.714,1.94-1.305,2.399-2.478c0.765-1.963-1.271-0.831-2.181-0.526c-1.13,0.379-2.893,0.313-3.949-0.202
	c-1.244-0.606-2.696-0.796-3.84-1.607c-0.53-0.375-0.788-0.902-1.268-1.324c-0.496-0.439-1.116-0.736-1.683-1.074
	c-0.46-0.274-0.999-0.439-1.401-0.8c-0.391-0.349-0.613-0.842-0.934-1.261c-0.786-1.023-1.397-1.746-1.464-3.068
	c-0.042-0.859,0.04-0.979,0.888-1.022c0.939-0.049,1.327,0.089,2.09,0.53c1.057,0.61,2.203,1.186,3.303,1.722
	c1.532,0.747,3.27,1.073,4.872,1.577c1.706,0.535,3.527,0.643,5.283,0.921c1.548,0.248,3.105,0.425,4.652,0.67
	c1.681,0.266,2.306-0.073,3.66-1.035c0.616-0.438,1.307-0.806,1.842-1.331c0.473-0.46,0.685-1.116,1.094-1.608
	c1.276-1.527,3.274-2.841,4.009-4.747c0.099-0.258,0.179-0.579,0.146-0.855c-1.079,0.413-1.988,1.178-3.127,1.512
	c-1.587,0.465-3.291,0.454-4.973,0.454c-1.292,0-2.44-0.215-3.647-0.569c-0.628-0.186-1.274-0.463-1.879-0.62
	c-0.638-0.165-1.32-0.075-1.998-0.142c-2.838-0.281-5.804-0.068-8.689-0.203c-1.437-0.067-3.026-0.343-3.782-1.611
	c-0.714-1.197,0.369-1.759,1.502-1.984c0.815-0.162,1.516,0.057,2.28,0.381c0,0,1.729,0.854,6.21,1.291
	c4.481,0.438,12.372-0.683,14.855-1.218c2.484-0.535,4.333-0.438,5.21-3.36c0.244-1.9,0.391-2.729-0.388-2.972
	c-0.781-0.243-2.338,0.146-4.529,0.877c-2.192,0.73-7.453,1.899-9.402,1.899c-1.947,0-5.648,0.244-5.698-0.341
	c-0.048-0.584,1.803-0.683,3.945-0.975c2.144-0.292,6.868-0.974,8.963-1.266c2.094-0.292,4.919-0.391,5.114-1.56
	c0.194-1.169-0.975-2.336-0.438-4.139c0.535-1.803,1.313-2.29,1.07-2.679c0,0-0.194,0.097-2.483-2.533
	c-2.289-2.63-6.088-7.354-7.062-7.306c-0.975,0.049-1.218-0.73-3.799,1.949c-2.582,2.679-6.721,6.429-9.254,7.89
	s-4.529,3.75-3.799-0.926s2.922-10.813,4.529-12.419c1.607-1.607,5.357-3.311,6.624-3.993c1.266-0.683,2.094-1.364,1.655-1.802
	c-0.438-0.438-3.264-2.192-4.628-2.046c-1.362,0.146-3.018,1.266-5.016,3.166s-4.724,5.457-7.062,10.813s-3.604,6.819-4.773,7.598
	c-1.169,0.779-3.652,2.972-3.263-2.922c0.389-5.894,4.042-12.372,6.722-15.537c2.678-3.166,5.794-5.795,5.794-6.234
	s-1.411-0.293-6.671,0.779c-5.261,1.072-9.06,1.51-10.18,4.14c-1.121,2.63-1.899,10.18-1.802,14.076
	c0.097,3.896,0,6.235-1.023,6.867c-1.022,0.632-3.408,0.974-5.601-5.747c-2.191-6.721-0.146-10.958,0.73-12.955
	c0.877-1.998,1.606-3.848,0.682-3.848s-3.263,1.168-6.185,4.042c-2.923,2.875-7.648,8.036-7.648,9.498
	c0,1.461,0.048,2.532,1.9,3.604c1.852,1.072,4.14,3.556,4.529,4.725c0.391,1.169,0.243,2.533-0.438,3.068
	c-0.681,0.536-2.63,0.974-4.919-3.36c-2.29-4.334-1.852-5.065-2.679-5.065s-2.094,1.606-2.679,3.555
	c-0.584,1.949-1.169,5.016,1.218,8.913c2.387,3.897,5.066,7.452,9.109,7.209c4.041-0.243,8.035-1.314,9.107-0.682
	c1.07,0.632,1.412,1.606,1.217,2.094c-0.194,0.487-1.656,2.387-3.068,2.825c-1.412,0.438-6.721-0.049-9.984,0.877
	c-3.263,0.926-7.013,4.919-7.792,5.65c-0.78,0.73-1.217,1.654-1.023-0.195c0.195-1.851,1.899-6.916,2.874-8.963
	c0.975-2.045,1.461-5.065-2.046-8.815c-3.507-3.75-6.964-7.062-12.176-5.844s-3.215,1.899-3.166,2.241
	c0.049,0.341,2.825,1.754,4.237,3.117s3.312,3.556,2.874,4.821c-0.438,1.267-2.045,2.533-5.016-0.73s-1.51-5.698-3.896-6.478
	s-3.75-0.048-7.16,1.803c-3.409,1.85-9.254,6.086-10.033,7.061c-0.779,0.976-0.73,2.437,0.438,2.241s6.04-1.754,9.01-1.169
	s8.037,2.583,9.839,4.726s2.727,3.993,1.802,4.528c-0.925,0.536-2.484,0.925-11.202-1.218c-4.724-0.682-6.526-0.535-8.815-0.535
	c-2.289,0-3.75,1.022-4.773,3.068s-5.796,12.129-5.211,12.322c0.584,0.194,3.167-2.289,6.186-3.751
	c3.02-1.461,10.715-4.237,14.514-4.091s6.867,0.927,7.062,1.852s-1.607,2.824-3.896,3.75s-11.591,2.19-15.634,4.285
	c-4.043,2.095-7.014,5.017-6.965,6.332c0.049,1.314,0.829,5.406,1.9,4.676c1.071-0.731,4.481-6.186,7.744-7.257
	c3.263-1.072,10.958-1.509,12.712-1.315c1.753,0.194,3.117,0.438,0.682,2.873c-2.436,2.436-6.332,5.649-8.962,7.16
	c-2.63,1.51-5.456,2.288-4.53,5.356s6.235,8.036,6.478,8.816c0.243,0.779-0.097,1.9,1.607,1.413s3.653-0.243,4.432,0.438
	c0.779,0.682,1.802,1.655,2.776-0.391s3.653-8.815,4.237-10.666s1.705-5.065,2.143-4.919s0.195,2.582-0.438,4.725
	c-0.633,2.143-3.848,8.962-4.725,10.374c-0.876,1.412-1.899,2.727-1.412,3.604s4.042,0.828,4.871,0.243
	c0.828-0.584,5.26-8.911,5.99-12.76c0.73-3.848,1.218-6.917,1.071-9.498c-0.146-2.581-0.194-5.162,1.51-5.162
	c1.705,0,1.899,2.824,1.705,4.334c-0.195,1.511-1.705,5.456-1.851,7.063c-0.146,1.607-0.146,7.891-0.438,9.352
	c-0.292,1.461-1.072,3.896-1.851,4.821c-0.779,0.926-1.705,1.997-1.461,2.046s2.338-0.195,3.896-1.218s6.77-2.972,7.5-6.186
	c0.73-3.215,0.828-15.245,0.098-18.069s-1.071-4.528-0.584-4.724c0.486-0.195,3.702,1.509,4.773,4.188
	c1.071,2.679,2.436,6.868,2.483,8.377c0.049,1.51-1.07,5.211-1.314,5.504c-0.244,0.292,0,0.974,0.73,0.73s7.501-3.556,8.036-7.306
	c0.536-3.75,0.926-8.28-0.585-9.547c-1.51-1.266-7.889-3.068-10.324-7.598c-1.072-1.461-0.877-2.143,0-2.191
	c0.876-0.049,4.918,1.56,7.062,4.14c2.144,2.581,4.529,5.697,5.114,5.747c0.584,0.049,1.704,0,1.996-1.607
	c0.293-1.607,0.584-3.164-1.559-5.746s-3.215-6.284-5.26-9.839s-4.092-4.041-5.893-3.408c-1.803,0.632-6.722,4.918-8.719,5.941
	c-1.997,1.022-3.264,1.655-6.234,6.818c-2.971,5.162-7.257,12.127-8.084,13.441c-0.828,1.315-3.02,6.283-3.02,6.283"/>
<g>
	<g>
		<path fill="#B5C193" d="M285.92,100.905c-0.373,3.354,0.375,9.75,4.625,10.125s15.375-2.25,20.25-4.75s6.25-4.375,15.25-24
			c8.625-16.375,10.125-18.75,13.5-23.125s12.125-16,13.125-21.125s3.75-9.875-14.25-9.875c-12.625,1.875-22.625,10.125-29.25,19.5
			s-13,24.25-17.625,33.375S286.17,98.655,285.92,100.905z"/>
		<path fill="#6C8675" d="M347.67,80.905c-2.467-3.251-4.125-4-15,1.625s-24.25,12.75-27.5,15s-11.25,7.875-9,13.875
			s7,10.75,15,9.25s19.625-11.625,26.5-20.375S350.42,84.53,347.67,80.905z"/>
	</g>
	<path fill="#4D6543" d="M323.787,87.171c-8.335,4.399-16.224,8.702-18.617,10.359c-3.109,2.152-10.56,7.395-9.229,13.099
		c5.026-0.806,11.456-2.606,14.854-4.349C315.229,104.006,316.77,102.244,323.787,87.171z"/>
</g>
<g>
	<g>
		<path fill="#B5C193" d="M126.595,197.858c0.536-3.332,0.1-9.757-4.126-10.338c-4.227-0.582-15.466,1.498-20.458,3.758
			c-4.991,2.259-6.456,4.064-16.401,23.229C76.198,230.441,74.583,232.741,71,236.946s-12.89,15.391-14.139,20.46
			c-1.249,5.07-4.227,9.681,13.752,10.558c12.702-1.257,23.091-9.011,30.166-18.052c7.074-9.041,14.166-23.588,19.23-32.477
			S126.236,200.094,126.595,197.858z"/>
		<path fill="#6C8675" d="M63.944,214.826c2.306,3.367,3.925,4.196,15.062-0.893c11.136-5.088,24.842-11.553,28.198-13.642
			c3.355-2.09,11.62-7.318,9.665-13.421c-1.955-6.102-6.468-11.078-14.531-9.97c-8.064,1.108-20.168,10.655-27.461,19.06
			C67.583,204.366,61.374,211.071,63.944,214.826z"/>
	</g>
	<path fill="#4D6543" d="M88.104,209.731c8.54-3.988,16.628-7.901,19.1-9.439c3.21-1.999,10.907-6.872,9.856-12.634
		c-5.06,0.56-11.569,2.045-15.049,3.62C97.471,193.334,95.847,195.019,88.104,209.731z"/>
</g>
<path fill="none" stroke="#000000" stroke-width="0.4" stroke-linecap="round" stroke-linejoin="round" stroke-miterlimit="10" d="
	M132.082,176.166c0,0-1.164,1.094-4.331,5.085c-3.167,3.989-7.949,8.879-10.727,11.517c-2.778,2.637-7.37,8.816-10.536,12.099
	c-3.167,3.281-12.344,13.448-14.218,15.249c-1.873,1.801-9.561,9.07-12.538,14.027c-2.977,4.958-9.253,15.389-11.259,18.931
	c0,0-3.17,4.894-4.592,6.695c-1.422,1.803-3.037,3.539-2.39,2.058c0.648-1.481,6.017-9.852,7.569-11.976s8.926-13.004,11.641-16.157
	c2.714-3.154,19.777-22.329,22.364-25.934c2.587-3.604,5.304-7.789,6.402-8.756c1.098-0.963,5.745-3.339,7.285,0.017
	c1.54,3.356,3.464,8.132,2.815,9.936s-1.813,3.734-4.975,4.954c-3.162,1.217-6.581,2.048-7.353,1.402
	c-0.128-0.516-0.063-0.774,0.903-0.643c0.967,0.13,3.544,1.361,5.026,1.492c1.483,0.133,2.451-0.704,2.645-0.832
	c0.193-0.128,0.253,2.192-1.497,6.639c-1.751,4.444-4.145,8.114-5.76,10.108c-1.616,1.996-3.038,3.218-3.552,2.571
	c-0.514-0.646-1.156-2.258-3.473-3.875c-2.317-1.616-8.114-4.53-8.692-4.983c-0.58-0.453-0.771-1.484-0.062-1.226
	c0.708,0.26,1.864,2.777,4.824,5.104c2.961,2.328,5.271,7.49,5.271,7.49s0.254,1.999-1.361,3.351
	c-1.615,1.351-4.779,3.922-5.813,5.209c-1.034,1.288-2.395,4.315-3.104,4.378c-0.71,0.063-2.123-2.519-2.959-3.423
	c-0.836-0.905-4.37-6.394-4.819-7.555c-0.449-1.161-1.411-3.227-1.477-2.775c-0.066,0.451,1.269,9.287,4.356,12.517
	c3.087,3.23,2.892,4.456,2.504,4.971s-2.066,1.093-2.518,1.477c-0.452,0.386-2.393,3.413-4.33,4.826
	c-1.938,1.415-6.005,4.243-7.941,5.206s-3.55,1.797-4.259,1.731c-0.708-0.066-1.607-2.196-2.25-2.777
	c-0.643-0.582-1.16-0.39-1.292,1.094c-0.132,1.481,0.766,3.419-0.588,3.931c-1.355,0.514-3.163,1.411-4.773,1.086
	c-1.611-0.326-7.795-3.306-8.76-4.08c-0.965-0.777-2.182-4.647-1.535-5.937c0.648-1.288,5.116-10.433,5.895-12.816
	c0.779-2.385,1.436-7.733,1.954-8.765c0.518-1.031,0.843-2.448,3.812-3.537c2.967-1.091,5.935-1.857,5.743-2.567
	c-0.192-0.709-1.288-0.776-3.222-0.973c-1.934-0.198-3.544-0.331-3.416-0.589c0.13-0.257,2.654-4.506,3.43-5.666
	c0.776-1.158,3.034-1.605,4.065-1.925c1.032-0.32,2.257-0.382,2.258-0.77c0-0.386-2.32-0.392-3.222-0.65
	c-0.902-0.261-1.096-0.326-0.061-1.677c1.035-1.353,2.912-4.894,5.434-8.436c2.522-3.54,5.95-8.755,6.08-8.819
	c0.129-0.064,7.213,3.626,11.272,5.118c4.059,1.491,7.219,0.982,7.155,0.66c-0.064-0.322-1.029-1.292-1.737-1.55
	c-0.708-0.262-2.707-0.652-6.184-2.658c-3.477-2.006-8.05-4.273-8.629-4.597c-0.58-0.322,1.554-3.22,4.33-4.696
	s4.196-2.569,4.711-2.182c0.516,0.389,4.119,3.812,5.73,3.945c1.611,0.131,0.968-0.449-0.191-1.161
	c-1.159-0.712-2.766-2.649-3.151-3.166c-0.386-0.517-0.32-1.097,1.163-1.48c1.484-0.384,3.806-0.958,5.095-0.763
	s8.567,4.017,8.567,4.017"/>
<path fill="none" stroke="#000000" stroke-width="0.4" stroke-linecap="round" stroke-linejoin="round" stroke-miterlimit="10" d="
	M280.545,118.78c0,0,1.125-1.063,4.188-4.938s7.688-8.625,10.375-11.188s7.125-8.563,10.188-11.75s11.938-13.063,13.75-14.813
	s9.25-8.813,12.125-13.625s8.938-14.938,10.875-18.375c0,0,3.063-4.75,4.438-6.5s2.938-3.438,2.313-2s-5.813,9.563-7.313,11.625
	s-8.625,12.625-11.25,15.688s-19.125,21.688-21.625,25.188s-5.125,7.563-6.188,8.5s-5.563,3.25-7.063,0s-3.375-7.875-2.75-9.625
	s1.75-3.625,4.813-4.813s6.375-2,7.125-1.375c0.125,0.5,0.063,0.75-0.875,0.625s-3.438-1.313-4.875-1.438s-2.375,0.688-2.563,0.813
	s-0.25-2.125,1.438-6.438s4-7.875,5.563-9.813s2.938-3.125,3.438-2.5s1.125,2.188,3.375,3.75s7.875,4.375,8.438,4.813
	s0.75,1.438,0.063,1.188s-1.813-2.688-4.688-4.938s-5.125-7.25-5.125-7.25s-0.25-1.938,1.313-3.25s4.625-3.813,5.625-5.063
	s2.313-4.188,3-4.25s2.063,2.438,2.875,3.313s4.25,6.188,4.688,7.313s1.375,3.125,1.438,2.688s-1.25-9-4.25-12.125
	s-2.813-4.313-2.438-4.813s2-1.063,2.438-1.438s2.313-3.313,4.188-4.688s5.813-4.125,7.688-5.063s3.438-1.75,4.125-1.688
	s1.563,2.125,2.188,2.688s1.125,0.375,1.25-1.063s-0.75-3.313,0.563-3.813s3.063-1.375,4.625-1.063s7.563,3.188,8.5,3.938
	s2.125,4.5,1.5,5.75s-4.938,10.125-5.688,12.438s-1.375,7.5-1.875,8.5s-0.813,2.375-3.688,3.438s-5.75,1.813-5.563,2.5
	s1.25,0.75,3.125,0.938s3.438,0.313,3.313,0.563s-2.563,4.375-3.313,5.5s-2.938,1.563-3.938,1.875s-2.188,0.375-2.188,0.75
	s2.25,0.375,3.125,0.625s1.063,0.313,0.063,1.625s-2.813,4.75-5.25,8.188s-5.75,8.5-5.875,8.563s-7-3.5-10.938-4.938
	s-7-0.938-6.938-0.625s1,1.25,1.688,1.5s2.625,0.625,6,2.563s7.813,4.125,8.375,4.438s-1.5,3.125-4.188,4.563
	s-4.063,2.5-4.563,2.125s-4-3.688-5.563-3.813s-0.938,0.438,0.188,1.125s2.688,2.563,3.063,3.063s0.313,1.063-1.125,1.438
	s-3.688,0.938-4.938,0.75s-8.313-3.875-8.313-3.875"/>
<g>
	<path fill="none" stroke="#000000" stroke-width="0.4" stroke-linejoin="round" stroke-miterlimit="10" d="M306.407,206.423
		c-1.278-0.654-2.778-0.142-4.061,0.264c-1.498,0.472-2.594-0.127-4.106-0.234c-3.275-0.235-5.386,2.232-6.37,5.14
		c-0.468,1.378-1.232,3.076-2.475,4.103c-0.652,0.539-1.382,0.823-1.974,1.42c-0.688,0.695-1.243,1.525-1.823,2.334
		c-1.023,1.429-1.396,2.722-1.218,4.466c0.119,1.164,0.47,3.234,1.396,4.009c1.093-0.864,2.021-2.465,2.904-3.582
		c0.954-1.208,2.362-1.545,3.762-2.179c2.016-0.913,5.503-2.426,7.724-1.425c0.279,0.127,0.534,0.23,0.766,0.448
		c-1.547,2.37-4.517,2.598-6.575,4.207c-2.092,1.638-4.908,2.863-6.066,5.41c-0.59,1.292,0.244,2.936,0.834,4.199
		c0.578,1.243,1.405,2.532,2.17,3.696c0.694,1.054,1.299,2.432,2.214,3.311c1.012,0.965,1.061-0.002,1.001-1.073
		c-0.042-0.729,0.067-1.164,0.224-1.889c0.302-1.392,0.45-2.795,1.08-4.099c1.241-2.576,3.937-6.279,6.944-6.706
		c0.513-0.073,1.829-0.188,2.128,0.395c0.276,0.535-0.692,1.641-1.066,2.166c-2.115,2.937-4.575,5.685-6.843,8.519
		c-2.512,3.142,0.069,7.372,2.902,9.402c1.765,1.263,4.017,3.116,6.122,3.512c0.553-0.507-1.565-3.492-1.839-4.382
		c-0.267-0.854-0.299-1.716-0.255-2.587c0.135-2.579,1.413-4.661,2.895-6.711c0.97-1.34,1.27-2.896,2.369-4.159
		c1.333-1.526,2.575-0.027,2.65,1.628c0.063,1.398-1.166,2.693-1.767,3.913c-1.269,2.566-2.284,4.684-2.708,7.555
		c-0.198,1.345-0.633,2.727-0.487,4.134c0.125,1.208,1.177,2.706,1.929,3.73c1,1.36,1.794,2.58,3.039,3.763
		c1.205,1.146,2.914,2.133,4.515,2.388c2.019,0.322,1.097-1.509,0.729-2.682c-0.903-2.868-1.83-5.893-2.114-8.872
		c-0.145-1.502-0.291-2.993,0.008-4.444c0.207-1.009,0.973-3.669,2.145-3.925c1.505-0.333,2.276,1.735,2.178,2.873
		c-0.136,1.604-1.155,3.107-1.535,4.662c-0.906,3.704-0.028,7.314,1.264,10.859c0.533,1.465,1.091,2.84,1.942,4.137
		c1.131,1.725,2.57,2.534,4.194,3.823c0.824,0.656,3.355,3.356,4.387,2.193c-0.342-0.472-0.734-0.932-1.036-1.396
		c0.128-3.249-2.694-5.853-4.277-8.532c-0.768-1.303-1.661-2.914-1.089-4.441c0.674-1.79,2.71-1.126,3.566,0.139
		c0.431,0.64,0.596,1.746,0.782,2.48c0.307,1.201,0.679,2.207,1.322,3.274c0.912,1.518,1.555,3.011,2.739,4.33
		c0.904,1.005,1.383,2.507,2.735,3.038c1.308,0.515,3.046,0.5,4.443,0.748c1.507,0.268,2.906,0.498,4.431,0.49
		c0.63-0.005,1.363,0.044,1.953-0.249c0.821-0.404,0.542-0.728,0.804-1.584c0.218-0.715,0.76-1.329,0.862-2.068
		c0.109-0.789-0.685-1.528-1.353-2.19c-1.525-1.508-3.501-2.652-5.127-4.035c-1.092-0.929-2.467-2.579-2.908-3.949
		c-0.493-1.524,0.28-2.994,1.979-2.466c1.999,0.62,4.354,2.999,5.54,4.495c0.896,1.129,3.677,5.339,5.387,4.706
		c1.111-0.412,1.729-2.881,1.884-3.914c0.751-5.026-5.512-9.596-9.832-10.467c-3.229-0.651-6.625-2.404-9.669-3.854
		c-0.992-0.473-3.978-1.858-3.758-3.241c0.227-1.43,2.424-1.015,3.428-0.897c2.495,0.284,5.393,1.077,7.744,1.967
		c2.599,0.983,4.313,3.335,5.985,5.431c1.444,1.813,2.61,4.251,4.69,5.516c1.003-1.189,0.401-2.963,0.742-4.452
		c0.329-1.437,0.736-3.065-0.249-4.206c-1.176-1.362-2.917-2.459-4.262-3.637c-1.482-1.302-2.89-2.721-4.377-4.023
		c-2.304-2.015-5.944-2.203-8.689-3.024c-1.637-0.49-3.236-0.74-4.643-1.896c-1.304-1.068-1.3-3.211,0.816-2.674
		c1.083,0.275,2.138,1.03,3.218,1.33c2.759,0.766,5.606,1.605,8.402,2.208c1.665,0.361,3.368,1.625,4.705,2.79
		c0.57,0.495,2.692,3.699,3.223,3.51c0.961-0.34,0.235-3.882,0.177-4.64c-0.222-2.828,1.211-6.506-0.964-8.736
		c-2.569-2.639-6.141-3.41-9.412-4.528c-1.611-0.553-3.249-0.774-5.04-0.807c-0.745-0.014-1.505-0.087-2.223-0.136
		c-0.878-0.061-1.442,0.272-2.262,0.435c-1.427,0.279-3.18-0.41-4.386-1.202c-0.658-0.427-1.733-0.875-1.367-1.711
		c0.286-0.646,1.124-0.621,1.723-0.741c1.878-0.37,3.478-1.398,5.42-1.543c1.911-0.141,3.844,0.162,5.71,0.523
		c1.859,0.355,3.604,0.905,5.472,1.232c0.701,0.124,3.727,1.346,3.964,0.909c-0.004,0.006-3.902-3.797-4.242-4.165
		c-1.395-1.502-2.793-3.028-4.438-4.267c-1.273-0.96-3.028-2.101-4.649-2.32c-1.564-0.211-2.953,0.806-4.226,1.557
		c-1.111,0.658-2.767,1.538-4.089,1.804c-1.375,0.273-2.911,0.3-4.041-0.667c-1.63-1.396-0.675-2.934,1.128-3.495
		c1.453-0.451,2.921-0.254,4.394,0.011c1.146,0.205,3.103,1.234,3.74-0.106c-1.115-1.756-3.979-1.49-5.688-2.42
		c-1.517-0.821-2.99-1.802-4.24-2.999c-1.103-1.054-1.707-3.028-2.94-3.833c-0.835-0.543-1.131-0.306-1.732,0.373
		c-0.936,1.058-2.04,2.516-2.673,3.766c-1.369,2.705,0.767,5.226,0.001,7.854c-0.4,1.38-1.21,0.616-2.093-0.047
		C309.287,208.443,307.963,207.212,306.407,206.423z"/>
	<path fill="none" stroke="#000000" stroke-width="0.4" stroke-linejoin="round" stroke-miterlimit="10" d="M322.674,195.143
		c-0.463,1.271-1.4,2.577-2.083,3.755c-0.891,1.541-1.808,3.199-2.427,4.877c-1.059,2.884-2.514,5.57-2.961,8.654
		c-0.436,2.998-0.176,6.089,0.677,8.992c0.938,3.19,2.085,6.248,3.385,9.325c1.336,3.16,2.684,6.055,3.464,9.585
		c0.691,3.118,2.614,5.867,4.33,8.391c1.718,2.525,3.364,4.877,5.354,7.218c0.528,0.622,1.166,1.297,1.669,1.928
		c0.813,1.011,1.313,1.927,2.224,2.852c1.004,1.024,1.728,2.296,2.752,3.31c1.923,1.901,3.152,4.328,5.533,5.875
		c0.156-0.855-2.339-2.795-3.013-3.457c-1.429-1.407-2.441-2.414-3.469-4.128c-1.72-2.875-4.149-5.134-6.196-7.859
		c-1.823-2.428-3.474-5.399-5.012-7.986c-0.861-1.449-1.345-3.181-2.196-4.629c-0.805-1.374-1.561-2.615-2.229-4.039
		c-0.69-1.478-1.404-2.651-1.853-4.224c-0.52-1.82-0.861-3.685-1.431-5.454c-0.872-2.716-1.767-5.506-2.32-8.342
		c-1.297-6.606,1.532-12.954,4.495-18.741c1.734-3.383,3.404-6.736,5.023-10.201c0.849-1.815,1.867-3.521,2.777-5.278
		c1.096-2.112,2.504-4.064,3.558-6.181c1.133-2.275,2.337-4.604,3.672-6.771c1.429-2.32,3.13-4.503,4.504-6.834"/>
</g>
<g>
	<g>
		<g>
			<path fill="#8BCCC9" d="M229.688,212.346c2.887,3.767,10.59,9.796,13.297,11.593c2.709,1.796,5.604,5.447,5.307,9.013
				c-0.296,3.568-2.432,9.695-7.798,13.85c-5.365,4.154-15.114,7.92-19.42,6.08c-4.302-1.838-6.271-3.836-6.915-6.199
				c-0.642-2.36-1.149-10.619-3.039-15.812c-1.888-5.189-7.935-10.516-12.736-11.267c-4.8-0.755-16.386,0.342-19.524-0.707
				c-3.138-1.047-9.25-2.551-9.834-12.85c-0.587-10.3,5.021-22.286,19.332-26.184c14.311-3.896,23.344,2.518,27.635,8.957
				C220.281,195.258,227.476,209.463,229.688,212.346z"/>
		</g>
		<path fill="#DEB892" d="M189.311,240.779c6.29-1.854,15.56-6.165,19.975-11.031c4.151-4.575,3.675-14.216-1.934-17.644
			c-14.654-8.956-32.29,4.352-44.108,12.934c-3.924,2.85-8.622,9.939-3.257,14.25c3.606,2.896,10.335,2.537,14.614,2.054
			C179.354,240.805,184.814,242.104,189.311,240.779z"/>
	</g>
	<path fill="#799373" d="M207.353,212.104c-10.459-6.393-22.436-1.441-32.733,5.036c1.534,0.921,3.087,1.371,4.24,1.756
		c3.138,1.049,14.724-0.048,19.524,0.707c4.129,0.646,9.174,4.678,11.708,9.096C213.338,223.834,212.563,215.289,207.353,212.104z"
		/>
</g>
<g>
	<path fill="none" stroke="#000000" stroke-width="0.4" stroke-miterlimit="10" d="M279.709,202.863c0,0,0.163-3.91,1.838-5.98
		c1.678-2.069,5.461-6.837,7.718-8.624c2.254-1.784,6.362-3.826,6.913-4.441c0.551-0.616,1.185-4.365,1.782-5.426
		c0.598-1.06,4.769-2.533,6.786-0.864c2.017,1.669,3.008,5.026,2.576,5.655c-0.43,0.629-1.176,0.774-4.114,0.918
		c-2.937,0.144-6.151-0.528-6.151-0.528"/>
	<path fill="none" stroke="#000000" stroke-width="0.4" stroke-miterlimit="10" d="M281.964,204.184c0,0,0.221-4.468,1.03-6.776
		s4.75-7.436,5.708-12.723c0.956-5.288,2.188-6.207,2.202-8.674c0.014-2.468-0.709-4.114-0.065-5.618s2.057-3.377,4.438-3.651
		c2.383-0.275,7.428,1.147,7.737,3.647c0.307,2.502,0.268,4.442-2.058,4.948s-6.741,0.047-7.924,1.27
		c-1.182,1.224-1.762,4.456-2.085,5.993s-2.393,5.063-2.849,5.538"/>
	<path fill="none" stroke="#000000" stroke-width="0.4" stroke-miterlimit="10" d="M289.605,182.234
		c0.667-0.154,3.587-2.471,7.055-3.828c3.469-1.359,10.35-2.738,13.811-4.023s9.925-4.13,11.833-6.1
		c1.91-1.97,7.712-6.23,9.183-5.553s3.193,2.054,2.951,3.6s-0.12,3.504-3.217,3.631c-3.099,0.126-9.073-0.945-9.073-0.945"/>
	<path fill="none" stroke="#000000" stroke-width="0.4" stroke-miterlimit="10" d="M305.432,178.347c0,0,5.791-0.296,8.171-1.319
		c2.381-1.022,3.867-2.065,6.001-2.292c2.135-0.228,6.502,0.678,7.113,2.611s0.372,4.229-0.838,4.925
		c-1.208,0.698-3.458-0.284-5.221-1.291c-1.762-1.007-3.379-0.277-4.277-1.792c-0.897-1.516,0.829-3.281,0.829-3.281"/>
	<path fill="none" stroke="#000000" stroke-width="0.4" stroke-miterlimit="10" d="M324.501,175.245c0,0,4.861-0.689,7.163-2.545
		c2.304-1.856,6.575-7.021,7.958-10.169c1.514-0.516,4.874-3.158,6.326-5.402c1.451-2.243,0.768-4.259-0.826-5.323
		c-1.595-1.063-6.604-1.286-7.923-0.302c-1.32,0.985-1.261,3.536-0.986,5.584c0.273,2.049,1.792,4.602,2.71,5.146"/>
	<path fill="none" stroke="#000000" stroke-width="0.4" stroke-miterlimit="10" d="M327.445,175.028c0,0-0.856,2.756,0.896,3.086
		c1.752,0.332,7.669,1.174,8.707-0.215c1.037-1.389,1.615-3.05,0.167-3.948c-1.447-0.898-3.699-1.882-3.699-1.882"/>
	<path fill="none" stroke="#000000" stroke-width="0.4" stroke-miterlimit="10" d="M335.438,169.203c0,0,6.392-2.927,7.846-4.421
		s4.485-5.669,7.208-5.31s4.508,1.144,3.665,3.001c-0.844,1.857-2.349,4.619-3.312,4.519c-0.964-0.101-2.453-1.379-3.353-1.323
		c-0.898,0.057-2.778-0.588-2.64-1.92"/>
</g>
<path fill="none" stroke="#000000" stroke-width="0.4" stroke-linecap="round" stroke-linejoin="round" stroke-miterlimit="10" d="
	M170.403,192.543c0.846,0.623,1.417,1.432,2.163,2.106c0.586,0.53,1.315,1.019,1.866,1.585c0.89,0.911,1.586,1.785,2.54,2.56
	c0.77,0.624,1.603,1.437,2.438,1.976c0.369,0.237,0.771,0.435,1.131,0.683c0.791,0.55,1.659,1.141,2.453,1.755
	c1.456,1.125,2.731,2.453,4.05,3.732c0.545,0.528,1.073,1.097,1.724,1.492c0.571,0.345,1.205,0.55,1.731,0.988
	c0.616,0.52,0.939,0.987,1.727,1.243c0.988,0.322,2.034,0.432,3.051,0.621c2.285,0.427,4.77,0.955,6.904,1.901
	c1.009,0.447,1.942,0.979,3.032,1.332c1.488,0.479,2.213,0.292,3.533-0.459c0.971-0.552,1.796-1.698,2.113-2.749
	c0.834-2.772,1.191-6.031,1.066-8.925c-0.068-1.581,0.722-2.999,1.244-4.439c0.263-0.716,0.436-1.416,0.485-2.179
	c0.042-0.616,0.272-1.531,0.064-2.11c-0.203-0.558-0.761-1.2-1.166-1.586c-0.637-0.604-1.757-1.962-2.679-1.507
	c-0.936,0.46-0.992,2.279-1.377,3.176c-0.434,1.016-0.755,2.054-1.152,3.095c-0.799,2.092-1.844,4.538-3.561,6.024
	c-0.43,0.373-2.627,2.272-3.126,1.695c-0.356-0.415,0.564-2.732,0.777-3.241c0.464-1.105,0.873-2.154,1.453-3.197
	c0.893-1.612,1.897-3.01,3.295-4.205c1.41-1.207,2.424-2.891,2.311-4.811c-0.158-2.588-2.416-5.207-3.803-7.387
	c-0.32-0.502-0.646-1.335-1.092-1.717c-0.438-0.377-1.1-0.34-1.641-0.5c-1.053-0.306-2.241-0.526-3.292-0.918
	c-1.146-0.431-2.209-0.967-3.484-0.716c-2.131,0.42-0.019,1.565,0.75,2.188c0.956,0.774,1.874,2.347,2.011,3.548
	c0.161,1.421,0.801,2.79,0.727,4.233c-0.032,0.671-0.349,1.186-0.45,1.838c-0.107,0.676-0.022,1.379-0.003,2.058
	c0.017,0.554,0.171,1.114,0.08,1.663c-0.087,0.533-0.394,1.001-0.581,1.512c-0.456,1.251-0.746,2.182-1.859,2.973
	c-0.724,0.513-0.875,0.507-1.382-0.207c-0.563-0.789-0.657-1.204-0.696-2.111c-0.054-1.258-0.188-2.575-0.329-3.829
	c-0.198-1.747-0.878-3.439-1.327-5.113c-0.478-1.78-1.393-3.426-2.125-5.107c-0.641-1.484-1.349-2.938-1.992-4.421
	c-0.7-1.609-1.341-1.966-2.929-2.611c-0.721-0.294-1.425-0.691-2.177-0.866c-0.662-0.157-1.351,0.022-2.006-0.063
	c-2.035-0.264-4.286-1.275-6.353-0.858c-0.278,0.056-0.603,0.165-0.823,0.347c0.956,0.711,2.125,1.078,3.045,1.884
	c1.284,1.124,2.219,2.613,3.15,4.075c0.716,1.126,1.164,2.243,1.524,3.491c0.186,0.649,0.302,1.365,0.5,1.979
	c0.21,0.646,0.666,1.19,0.983,1.816c1.328,2.627,3.155,5.089,4.636,7.676c0.736,1.287,1.376,2.822,0.691,4.185
	c-0.646,1.283-1.735,0.651-2.559-0.21c-0.592-0.62-0.789-1.351-0.932-2.194c0,0-0.212-1.978-2.313-6.12
	c-2.101-4.144-7.445-10.391-9.287-12.255c-1.841-1.865-2.781-3.529-5.81-2.675c-1.79,0.84-2.591,1.172-2.372,1.983
	c0.221,0.815,1.422,1.956,3.272,3.457c1.85,1.504,5.78,5.435,6.86,7.13c1.077,1.696,3.34,4.782,2.859,5.149
	c-0.482,0.366-1.594-1.19-3.032-2.895c-1.443-1.703-4.652-5.438-6.068-7.099c-1.412-1.66-3.063-4.064-4.188-3.587
	c-1.125,0.477-1.493,2.142-3.359,2.674c-1.866,0.53-2.72,0.124-2.925,0.551c0,0,0.193,0.113-0.83,3.564
	c-1.021,3.448-3.029,9.37-2.446,10.19c0.582,0.822,0.038,1.466,3.798,2.228c3.762,0.765,9.316,2.29,11.991,3.685
	c2.675,1.396,5.772,1.866,1.298,3.819c-4.475,1.953-11.029,3.445-13.317,2.936c-2.289-0.509-5.848-2.83-7.144-3.553
	c-1.295-0.725-2.347-1.069-2.484-0.443c-0.139,0.623-0.101,4.054,0.782,5.159c0.881,1.105,2.772,1.927,5.533,2.612
	c2.758,0.689,7.362,1.091,13.32,0.158c5.958-0.931,7.931-0.638,9.256-0.051c1.327,0.584,4.609,1.533-0.736,4.456
	c-5.344,2.927-13.006,3.335-17.246,2.755c-4.237-0.579-8.251-1.835-8.633-1.591c-0.382,0.241,0.526,1.39,4.372,5.375
	c3.847,3.983,6.332,7.047,9.241,6.566c2.91-0.479,9.912-3.984,13.248-6.228c3.337-2.24,5.427-3.451,6.543-2.911
	s2.736,2.428-1.9,8.057c-4.635,5.628-9.455,6.194-11.68,6.539c-2.225,0.342-4.237,0.732-3.727,1.536
	c0.513,0.806,2.824,2.193,6.942,3.146c4.122,0.95,11.23,2.205,12.502,1.396c1.271-0.81,2.176-1.444,2.085-3.649
	c-0.094-2.205,0.801-5.571,1.603-6.558c0.8-0.986,2.07-1.614,2.914-1.318c0.843,0.298,2.303,1.751-0.201,6.143
	c-2.506,4.394-3.384,4.416-2.926,5.137c0.458,0.72,2.559,0.934,4.579,0.362c2.019-0.571,5.012-1.76,7.083-5.995
	c2.07-4.236,3.68-8.534,1.229-11.92c-2.449-3.382-5.592-6.266-5.637-7.548c-0.042-1.282,0.616-2.118,1.147-2.219
	c0.533-0.102,2.996,0.12,4.159,1.105c1.164,0.987,3.68,5.876,6.293,8.203c2.612,2.328,8.165,3.38,9.231,3.654
	c1.069,0.273,2.116,0.143,0.398,0.997c-1.719,0.857-7.071,2.178-9.394,2.463c-2.317,0.284-5.217,1.535-6.539,6.663
	c-1.321,5.129-2.29,9.971,1.656,13.832c3.946,3.86,3.435,1.747,3.703,1.516c0.271-0.23-0.035-3.43,0.369-5.416
	c0.402-1.982,1.26-4.85,2.604-5.17c1.346-0.319,3.336,0.378,2.142,4.771c-1.195,4.393-4.122,4.469-3.479,6.979
	c0.643,2.508,2.035,3.291,5.532,5.232c3.499,1.942,10.423,4.684,11.703,4.822s2.524-0.715,1.707-1.622
	c-0.816-0.911-4.871-4.286-6.007-7.195s-2.203-8.425-1.336-11.18c0.866-2.754,1.966-4.585,2.943-4.076
	c0.979,0.509,2.181,1.65,5.145,10.425c2.022,4.489,3.146,5.975,4.414,7.968c1.269,1.992,2.967,2.698,5.314,2.457
	c2.347-0.245,13.767-1.674,13.611-2.289c-0.156-0.617-3.746-1.488-6.692-3.307c-2.943-1.818-9.62-6.979-11.597-10.367
	c-1.976-3.388-2.996-6.489-2.299-7.171s3.349-0.166,5.421,1.313c2.074,1.48,8.326,8.877,12.389,11.233
	c4.06,2.36,8.249,3.327,9.366,2.558c1.118-0.771,4.248-3.717,3.019-4.243c-1.23-0.528-7.864-0.475-10.604-2.722
	c-2.741-2.246-7.382-8.702-8.185-10.334c-0.801-1.634-1.345-2.956,2.123-2.186c3.47,0.77,8.425,2.383,11.194,3.833
	c2.771,1.455,5.013,3.482,7.171,0.977c2.157-2.503,3.541-9.875,4.085-10.521c0.546-0.643,1.709-0.968,0.34-2.181
	c-1.367-1.213-2.233-3.043-2.072-4.098c0.162-1.058,0.443-2.486-1.877-2.202c-2.32,0.286-9.694,1.703-11.629,2.22
	c-1.936,0.516-5.353,1.321-5.469,0.857c-0.115-0.462,2.14-1.6,4.354-2.232c2.216-0.637,9.932-1.617,11.646-1.634
	c1.715-0.02,3.425,0.142,3.919-0.768c0.493-0.91-1.519-3.976-2.485-4.372c-0.967-0.398-10.669,0.355-14.424,1.852
	c-3.753,1.495-6.693,2.771-8.858,4.326c-2.167,1.558-4.387,3.028-5.329,1.545c-0.944-1.483,1.405-3.217,2.828-3.885
	c1.422-0.666,5.692-1.536,7.172-2.299c1.479-0.764,6.947-4.243,8.381-4.797c1.434-0.555,3.984-1.224,5.222-1.059
	c1.238,0.166,2.681,0.377,2.589,0.139c-0.093-0.24-1.465-1.928-3.218-2.717c-1.753-0.79-6.335-4.247-9.536-3.103
	c-3.203,1.143-13.728,7.72-15.78,9.92c-2.054,2.2-3.349,3.44-3.789,3.124c-0.439-0.314-0.735-4.057,1.004-6.474
	c1.737-2.414,4.628-5.922,5.915-6.8c1.286-0.876,5.127-1.953,5.518-1.902c0.39,0.05,0.848-0.539,0.232-1.042
	c-0.617-0.501-7.249-4.559-10.81-2.947c-3.56,1.608-7.72,3.78-7.985,5.796c-0.264,2.016,1.698,8.564-0.894,13.192
	c-0.678,1.742-1.381,1.95-1.907,1.214c-0.529-0.735-1.367-5.144-0.309-8.439c1.061-3.294,2.449-7.097,2.17-7.632
	c-0.281-0.536-0.943-1.483-2.505-0.848c-1.561,0.634-3.077,1.244-4.138,4.538c-1.062,3.295-3.689,6.278-5.65,10.026
	c-1.962,3.748-1.25,5.799,0.297,7.016c1.548,1.219,8.002,3.127,9.998,4.298c1.998,1.173,3.248,1.924,9.388,1.649
	c6.138-0.271,14.573-0.397,16.175-0.404c1.604-0.01,7.142-0.853,7.142-0.853"/>
</svg>
